<?xml version="1.0" encoding="UTF-8"?>
<!DOCTYPE svg PUBLIC "-//W3C//DTD SVG 1.1//EN" "http://www.w3.org/Graphics/SVG/1.1/DTD/svg11.dtd">
<svg xmlns="http://www.w3.org/2000/svg" xmlns:xlink="http://www.w3.org/1999/xlink" version="1.1" width="260px" height="260px" viewBox="-0.5 -0.5 260 260"><defs/><g><rect x="0" y="0" width="260" height="260" fill="none" stroke="none" pointer-events="all"/><rect x="49" y="29" width="84" height="141" fill="none" stroke="none" transform="rotate(-45,91,99.5)" pointer-events="all"/><path d="M 54 170 C 51.56 168.99 49.68 166.46 49 163.27 L 49 92.48 C 49.58 89.13 51.48 86.42 54 85.33 L 60.19 85.33 L 60.19 66.54 C 60.24 56.6 63.44 47.12 69.04 40.29 C 74.64 33.46 82.16 29.88 89.86 30.37 C 97.93 29 106.07 32.19 112.19 39.11 C 118.31 46.04 121.81 56.04 121.81 66.54 L 121.81 85.33 L 127.13 85.33 C 129.99 86.06 132.27 88.84 133 92.48 L 133 163.27 C 132.26 166.56 130.24 169.11 127.68 170 Z M 95.18 156.12 L 95.18 126.82 C 99.17 124.37 101.3 118.68 100.33 113.12 C 99.35 107.57 95.53 103.62 91.11 103.62 C 86.69 103.62 82.86 107.57 81.89 113.12 C 80.91 118.68 83.05 124.37 87.03 126.82 L 87.03 156.12 Z M 111.7 85.33 L 111.7 65.84 C 110.83 52.12 101.6 41.82 90.95 42.71 C 80.38 41.98 71.27 52.23 70.41 65.84 L 70.41 85.33 Z" fill="#79ac78" stroke="none" transform="rotate(-45,91,99.5)" pointer-events="all"/><rect x="128" y="29" width="84" height="141" fill="none" stroke="none" transform="translate(170,0)scale(-1,1)translate(-170,0)rotate(-45,170,99.5)" pointer-events="all"/><path d="M 133 170 C 130.56 168.99 128.68 166.46 128 163.27 L 128 92.48 C 128.58 89.13 130.48 86.42 133 85.33 L 139.19 85.33 L 139.19 66.54 C 139.24 56.6 142.44 47.12 148.04 40.29 C 153.64 33.46 161.16 29.88 168.86 30.37 C 176.93 29 185.07 32.19 191.19 39.11 C 197.31 46.04 200.81 56.04 200.81 66.54 L 200.81 85.33 L 206.13 85.33 C 208.99 86.06 211.27 88.84 212 92.48 L 212 163.27 C 211.26 166.56 209.24 169.11 206.68 170 Z M 174.18 156.12 L 174.18 126.82 C 178.17 124.37 180.3 118.68 179.33 113.12 C 178.35 107.57 174.53 103.62 170.11 103.62 C 165.69 103.62 161.86 107.57 160.89 113.12 C 159.91 118.68 162.05 124.37 166.03 126.82 L 166.03 156.12 Z M 190.7 85.33 L 190.7 65.84 C 189.83 52.12 180.6 41.82 169.95 42.71 C 159.38 41.98 150.27 52.23 149.41 65.84 L 149.41 85.33 Z" fill="#79ac78" stroke="none" transform="translate(170,0)scale(-1,1)translate(-170,0)rotate(-45,170,99.5)" pointer-events="all"/><path d="M 78 82 L 118.69 41.31 Q 130 30 141.31 41.31 L 222.69 122.69 Q 234 134 222.69 145.31 L 141.31 226.69 Q 130 238 118.69 226.69 L 37.31 145.31 Q 26 134 37.31 122.69 Z" fill="#79ac78" stroke="none" pointer-events="all"/><ellipse cx="130" cy="114" rx="22" ry="22" fill="#ffffff" stroke="none" pointer-events="all"/><rect x="103" y="142" width="55" height="18" rx="9" ry="9" fill="rgb(255, 255, 255)" stroke="none" transform="rotate(90,130.5,151)" pointer-events="all"/></g></svg>